<svg xmlns="http://www.w3.org/2000/svg" viewBox="0 0 440 420" fill="none"><defs><linearGradient id="blue" x2="1" y2="1"><stop stop-color="#49c4ff"/><stop offset="1" stop-color="#0873ee"/></linearGradient><linearGradient id="metal" x2="1" y2="1"><stop stop-color="#f5f9fc"/><stop offset=".5" stop-color="#a4b6c5"/><stop offset="1" stop-color="#e1e9f0"/></linearGradient><linearGradient id="green" x2="1" y2="1"><stop stop-color="#8de39b"/><stop offset="1" stop-color="#19b968"/></linearGradient><filter id="shadow" x="-30%" y="-30%" width="170%" height="180%"><feDropShadow dx="0" dy="7" stdDeviation="7" flood-color="#234467" flood-opacity=".16"/></filter></defs><ellipse cx="228" cy="201" rx="182" ry="184" fill="#edf8ff"/><ellipse cx="227" cy="387" rx="158" ry="12" fill="#dfeef6"/><rect x="295" y="228" width="65" height="145" rx="3" fill="#d7e7f1"/><path d="M360 228l20 12v133h-20z" fill="#bed3e3"/><rect x="305.0" y="244.0" width="12" height="19" fill="#80c5ed"/><path d="M307.0 245.0v16" stroke="white" stroke-width="2"/><rect x="305.0" y="275.25" width="12" height="19" fill="#80c5ed"/><path d="M307.0 276.25v16" stroke="white" stroke-width="2"/><rect x="305.0" y="306.5" width="12" height="19" fill="#80c5ed"/><path d="M307.0 307.5v16" stroke="white" stroke-width="2"/><rect x="305.0" y="337.75" width="12" height="19" fill="#80c5ed"/><path d="M307.0 338.75v16" stroke="white" stroke-width="2"/><rect x="321.3333333333333" y="244.0" width="12" height="19" fill="#80c5ed"/><path d="M323.3333333333333 245.0v16" stroke="white" stroke-width="2"/><rect x="321.3333333333333" y="275.25" width="12" height="19" fill="#80c5ed"/><path d="M323.3333333333333 276.25v16" stroke="white" stroke-width="2"/><rect x="321.3333333333333" y="306.5" width="12" height="19" fill="#80c5ed"/><path d="M323.3333333333333 307.5v16" stroke="white" stroke-width="2"/><rect x="321.3333333333333" y="337.75" width="12" height="19" fill="#80c5ed"/><path d="M323.3333333333333 338.75v16" stroke="white" stroke-width="2"/><rect x="337.6666666666667" y="244.0" width="12" height="19" fill="#80c5ed"/><path d="M339.6666666666667 245.0v16" stroke="white" stroke-width="2"/><rect x="337.6666666666667" y="275.25" width="12" height="19" fill="#80c5ed"/><path d="M339.6666666666667 276.25v16" stroke="white" stroke-width="2"/><rect x="337.6666666666667" y="306.5" width="12" height="19" fill="#80c5ed"/><path d="M339.6666666666667 307.5v16" stroke="white" stroke-width="2"/><rect x="337.6666666666667" y="337.75" width="12" height="19" fill="#80c5ed"/><path d="M339.6666666666667 338.75v16" stroke="white" stroke-width="2"/><path d="M354 372c-51-7-46-70-27-73 15-2 20 28 20 28s-9-76 12-75 15 69 15 69 15-44 29-27-15 75-49 78z" fill="url(#green)"/><path d="M74 370c-26-5-43-50-28-57 13-6 20 19 20 19s-5-49 9-49 17 40 13 56c23-32 38-2 8 24z" fill="#87d69c"/><path d="M302 91c-3-36 47-49 64-17 36-7 58 44 27 59H286c-29-6-23-42 0-44 4-20 24-22 32-15" fill="url(#blue)"/><path d="M315 101a23 23 0 0140-9m-4-10 6 13-14-1m14 16a23 23 0 01-40 8m4 10-6-13 14 1" stroke="white" stroke-width="5" stroke-linecap="round" stroke-linejoin="round"/><path d="M264 254c62 0 86-29 81-76m-7 11 7-14 8 13" stroke="#1189f7" stroke-width="4" stroke-linecap="round" stroke-dasharray="7 8"/><g transform="rotate(-4 188 217)" filter="url(#shadow)"><rect x="88" y="35" width="183" height="354" rx="27" fill="#203247" stroke="#596e82" stroke-width="3"/><rect x="97" y="45" width="165" height="333" rx="21" fill="#fff"/><rect x="151" y="50" width="61" height="9" rx="5" fill="#203247"/><text x="116" y="88" fill="#0b2353" font-family="sans-serif" font-size="14" font-weight="bold">Minhas leituras</text><rect x="108" y="106" width="143" height="53" rx="10" fill="#f2f8fc"/><circle cx="130" cy="132" r="14" fill="#168bff" opacity=".18"/><path d="M128 122l-6 12h7l-2 9 11-15h-8l4-6" fill="#168bff"/><text x="152" y="127" font-family="sans-serif" font-size="11" fill="#0b2353">Água</text><text x="152" y="144" font-family="sans-serif" font-size="10" fill="#4b5d79">125,4 m³</text><circle cx="236" cy="132" r="11" fill="#16bd70"/><path d="M231 132l4 4 7-8" stroke="white" stroke-width="2.5" stroke-linecap="round" stroke-linejoin="round"/><rect x="108" y="167" width="143" height="53" rx="10" fill="#f2f8fc"/><circle cx="130" cy="193" r="14" fill="#ff9a1f" opacity=".18"/><path d="M128 183l-6 12h7l-2 9 11-15h-8l4-6" fill="#ff9a1f"/><text x="152" y="188" font-family="sans-serif" font-size="11" fill="#0b2353">Gás</text><text x="152" y="205" font-family="sans-serif" font-size="10" fill="#4b5d79">32,8 m³</text><circle cx="236" cy="193" r="11" fill="#16bd70"/><path d="M231 193l4 4 7-8" stroke="white" stroke-width="2.5" stroke-linecap="round" stroke-linejoin="round"/><rect x="108" y="228" width="143" height="53" rx="10" fill="#f2f8fc"/><circle cx="130" cy="254" r="14" fill="#eabc00" opacity=".18"/><path d="M128 244l-6 12h7l-2 9 11-15h-8l4-6" fill="#eabc00"/><text x="152" y="249" font-family="sans-serif" font-size="11" fill="#0b2353">Energia</text><text x="152" y="266" font-family="sans-serif" font-size="10" fill="#4b5d79">278 kWh</text><circle cx="236" cy="254" r="11" fill="#16bd70"/><path d="M231 254l4 4 7-8" stroke="white" stroke-width="2.5" stroke-linecap="round" stroke-linejoin="round"/><rect x="108" y="295" width="143" height="70" rx="12" fill="#eaf2f8"/><path d="M166 315q14-14 28 0m-22 6q8-8 16 0" stroke="#8ca1b5" stroke-width="4" stroke-linecap="round"/><path d="M166 329l27-27" stroke="#ef6a6a" stroke-width="3"/><text x="179" y="348" text-anchor="middle" fill="#0b2353" font-size="12" font-family="sans-serif">Sem internet</text></g></svg>